<?xml version="1.0" encoding="UTF-8" standalone="no"?>
<!-- Created with Inkscape (http://www.inkscape.org/) -->

<svg
   width="13cm"
   height="13cm"
   viewBox="0 0 130 130"
   version="1.1"
   id="svg1"
   xml:space="preserve"
   inkscape:version="1.4.2 (1:1.4.2+202505120737+ebf0e940d0)"
   sodipodi:docname="coversor.svg"
   xmlns:inkscape="http://www.inkscape.org/namespaces/inkscape"
   xmlns:sodipodi="http://sodipodi.sourceforge.net/DTD/sodipodi-0.dtd"
   xmlns="http://www.w3.org/2000/svg"
   xmlns:svg="http://www.w3.org/2000/svg"><sodipodi:namedview
     id="namedview1"
     pagecolor="#ffffff"
     bordercolor="#eeee00"
     borderopacity="1"
     inkscape:showpageshadow="0"
     inkscape:pageopacity="0"
     inkscape:pagecheckerboard="0"
     inkscape:deskcolor="#131313"
     inkscape:document-units="cm"
     inkscape:zoom="0.99864618"
     inkscape:cx="64.58744"
     inkscape:cy="330.94804"
     inkscape:window-width="2560"
     inkscape:window-height="1368"
     inkscape:window-x="0"
     inkscape:window-y="40"
     inkscape:window-maximized="1"
     inkscape:current-layer="layer1" /><defs
     id="defs1" /><g
     inkscape:label="Capa 1"
     inkscape:groupmode="layer"
     id="layer1"><path
       style="fill:#000000"
       d="m 10.760417,109.97916 v -9.26042 h 9.260416 9.260417 v 9.26042 9.26042 h -9.260417 -9.260416 z m 15.874999,0 v -6.61458 H 20.020833 13.40625 v 6.61458 6.61458 h 6.614583 6.614583 z m -10.583333,0 v -3.96875 h 3.96875 3.96875 v 3.96875 3.96875 h -3.96875 -3.96875 z m 15.875,7.9375 v -1.32292 h 1.322916 1.322917 v -1.32291 -1.32292 h -1.322917 -1.322916 v -5.29167 -5.29166 h 1.322916 1.322917 v -1.32292 -1.32292 h -1.322917 -1.322916 v -1.322911 -1.32292 H 25.3125 18.697917 v -1.32292 -1.32291 H 17.375 16.052083 v -5.29167 -5.29167 H 17.375 18.697917 v 5.29167 5.29167 h 1.322916 1.322917 v -1.32292 -1.32292 h 1.322916 1.322917 v -1.32291 -1.32292 h 2.645833 2.645834 v -1.32292 -1.32291 H 25.3125 21.34375 v -2.64584 -2.64583 h -1.322917 -1.322916 v -2.64583 -2.64583 H 16.052083 13.40625 v 1.32291 1.32292 h -1.322916 -1.322917 v -2.64583 -2.64584 h 1.322917 1.322916 v -1.32291 -1.32292 h -1.322916 -1.322917 v -1.32292 -1.32291 h 1.322917 1.322916 v -1.32292 -1.32292 h -1.322916 -1.322917 v -5.29166 -5.29167 h 1.322917 1.322916 v 3.96875 3.96875 h 1.322917 1.322916 v -7.9375 -7.9375 H 14.729167 13.40625 v 1.32292 1.32292 h -1.322916 -1.322917 v -1.32292 -1.32292 h 1.322917 1.322916 v -2.64583 -2.64583 h -1.322916 -1.322917 v -1.32292 -1.32292 h 1.322917 1.322916 v 1.32292 1.32292 h 2.645833 2.645834 v -1.32292 -1.32292 h 1.322916 1.322917 v -1.32291 -1.32292 H 17.375 13.40625 v -1.32292 -1.32291 h -1.322916 -1.322917 v -1.32292 -1.32292 h 1.322917 1.322916 v 1.32292 1.32292 h 1.322917 1.322916 v -1.32292 -1.32292 h 6.614583 6.614584 v 1.32292 1.32292 h 1.322916 1.322917 v 1.32291 1.32292 h 3.96875 3.968749 v -1.32292 -1.32291 h -1.322916 -1.322917 v -1.32292 -1.32292 h 1.322917 1.322916 v -1.32291 -1.32292 h -1.322916 -1.322917 v -1.32292 -1.32291 h 1.322917 1.322916 v 1.32291 1.32292 h 1.322917 1.322917 v -1.32292 -1.32291 h 1.322916 1.322917 v 1.32291 1.32292 h 1.322917 1.322916 v -1.32292 -1.32291 h 1.322917 1.322916 v -1.32292 -1.32292 h -1.322916 -1.322917 v -2.64583 -2.64583 h -1.322916 -1.322917 v -1.32292 -1.32292 h 1.322917 1.322916 v 1.32292 1.32292 h 1.322917 1.322916 v -1.32292 -1.32292 h 1.322917 1.322917 v 1.32292 1.32292 h 1.322916 1.322917 v 1.32291 1.32292 h 1.322916 1.322917 v -1.32292 -1.32291 h 1.322917 1.322916 v 1.32291 1.32292 h 1.322917 1.322917 v -1.32292 -1.32291 h 6.614579 6.61459 v 1.32291 1.32292 h -1.32292 -1.32291 v 1.32292 1.32291 h 1.32291 1.32292 v 2.64584 2.64583 h -1.32292 -1.32291 v -2.64583 -2.64584 h -1.32292 -1.32292 v 2.64584 2.64583 h -1.32292 -1.32291 v 1.32292 1.32291 h 1.32291 1.32292 v 1.32292 1.32292 h 1.32292 1.32292 v 1.32291 1.32292 h -1.32292 -1.32292 v 2.64583 2.64584 h 1.32292 1.32292 v -1.32292 -1.32292 h 1.32291 1.32292 v 1.32292 1.32292 h 1.32292 1.32291 v -1.32292 -1.32292 h 1.32292 1.32292 v -1.32291 -1.32292 h 1.32291 1.32292 v -1.32292 -1.32291 h -2.64583 -2.64584 v 1.32291 1.32292 h -1.32291 -1.32292 v -2.64583 -2.64584 h 1.32292 1.32291 v -5.29166 -5.29167 h 1.32292 1.32292 v 1.32292 1.32291 h 1.32291 1.32292 v -1.32291 -1.32292 h 5.29166 5.29167 v 1.32292 1.32291 h -1.32292 -1.32291 v 2.64584 2.64583 h 1.32291 1.32292 v -1.32292 -1.32291 h 1.32292 1.32291 v 1.32291 1.32292 h -1.32291 -1.32292 v 1.32292 1.32291 h -1.32292 -1.32291 v -1.32291 -1.32292 h -1.32292 -1.32292 v -1.32292 -1.32291 h -1.32291 -1.32292 v 2.64583 2.64583 h 1.32292 1.32291 v 3.96875 3.96875 h -3.96875 -3.96874 v 1.32292 1.32292 h 1.32291 1.32292 v 1.32291 1.32292 h 1.32291 1.32292 v -1.32292 -1.32291 h 1.32292 1.32291 v 3.96875 3.96875 h -1.32291 -1.32292 v 1.32291 1.32292 h -1.32292 -1.32291 v -1.32292 -1.32291 h 1.32291 1.32292 v -1.32292 -1.32292 h -2.64583 -2.64583 v 5.29167 5.29167 h 1.32291 1.32292 v -1.32292 -1.32292 h 1.32291 1.32292 v 3.96875 3.96875 h -1.32292 -1.32291 v 1.32292 1.32291 h 1.32291 1.32292 v 1.32292 1.32292 h 2.64583 2.64584 v -1.32292 -1.32292 h -1.32292 -1.32292 v -1.32291 -1.32292 h 1.32292 1.32292 v -1.32292 -1.32291 h -1.32292 -1.32292 v -1.32292 -1.32291 h 1.32292 1.32292 v -2.64584 -2.64583 h 1.32291 1.32292 v -2.64583 -2.64584 h 2.64583 2.645839 v -1.32291 -1.32292 h 1.32291 1.32292 v -1.32292 -1.32291 h 1.32292 1.32291 v -1.32292 -1.32292 h 2.64584 2.64583 v 1.32292 1.32292 h 1.32292 1.32291 v -1.32292 -1.32292 h 1.32292 1.32292 v 1.32292 1.32292 h -1.32292 -1.32292 v 1.32291 1.32292 h 2.64584 2.64583 v 1.32292 1.32291 h -3.96875 -3.96875 v 2.64584 2.64583 h 1.32292 1.32291 v -1.32292 -1.32291 h 2.64584 2.64583 v 3.96875 3.96875 h -2.64583 -2.64584 v -1.32292 -1.32292 h -1.32291 -1.32292 v -1.32291 -1.32292 h -1.32292 -1.32291 v -2.64583 -2.64584 h -1.32292 -1.32292 v 3.96875 3.96875 h 1.32292 1.32292 v 1.32292 1.32292 h 1.32291 1.32292 v 1.32291 1.32292 h -1.32292 -1.32291 v 1.32291 1.32292 h 2.64583 2.64583 v -1.32292 -1.32291 h 2.64584 2.64583 v 3.96875 3.96875 h -2.64583 -2.64584 v -1.32292 -1.32292 h -1.32291 -1.32292 v 2.64584 2.64583 h -1.32292 -1.32291 v 1.32292 1.32291 h -1.32292 -1.32292 v 1.32292 1.32292 h 2.64584 2.64583 v -1.32292 -1.32292 h 1.32292 1.32291 v -1.32291 -1.32292 h 1.32292 1.32292 v 1.32292 1.32291 h 1.32291 1.32292 v 2.64584 2.64583 h -1.32292 -1.32291 v -1.32292 -1.32291 h -2.64584 -2.64583 v 1.32291 1.32292 h -1.32292 -1.32291 v 1.32292 1.32291 h 1.32291 1.32292 v 1.32292 1.32291 h 1.32292 1.32291 v -1.32291 -1.32292 h 2.64584 2.64583 v 3.96875 3.96875 h -2.64583 -2.64584 v 1.32292 1.32291 h -1.32291 -1.32292 v 1.32292 1.32292 h 1.32292 1.32291 v 1.32291 1.32292 h 1.32292 1.32292 v -2.64583 -2.64584 h 1.32291 1.32292 v 3.96875 3.968751 h -3.96875 -3.96875 v 2.64584 2.64583 h 1.32292 1.32291 v 1.32292 1.32291 h -1.32291 -1.32292 v 1.32292 1.32292 h 1.32292 1.32291 v 1.32291 1.32292 h 1.32292 1.32292 v 1.32292 1.32291 h -1.32292 -1.32292 v 1.32292 1.32292 h -5.29166 -5.29167 v -1.32292 -1.32292 h -1.32292 -1.32291 v -1.32291 -1.32292 h -1.322919 -1.32292 v 1.32292 1.32291 h -1.32291 -1.32292 v 1.32292 1.32292 h -1.32292 -1.32291 v -2.64584 -2.64583 h -1.32292 -1.32292 v -2.64583 -2.64584 h 2.64584 2.64583 v -1.32291 -1.32292 h -3.96875 -3.96875 v 5.29167 5.29166 h 1.32292 1.32291 v 1.32292 1.32292 h -10.58333 -10.58333 v -1.32292 -1.32292 h -2.645836 -2.645833 v 1.32292 1.32292 h -3.96875 -3.96875 v -1.32292 -1.32292 h -2.645833 -2.645834 v 1.32292 1.32292 h -1.322916 -1.322917 v -1.32292 -1.32292 h 1.322917 1.322916 v -2.64583 -2.64583 h -2.645833 -2.645833 v -1.32292 -1.32292 h -1.322917 -1.322916 v -1.32291 -1.32292 h 1.322916 1.322917 v -1.32292 -1.32291 h -2.645833 -2.645834 v 2.64583 2.64583 h -1.322916 -1.322917 v 1.32292 1.32292 h 2.645833 2.645834 v 2.64583 2.64583 h -1.322917 -1.322917 v 1.32292 1.32292 h -1.322916 -1.322917 v -1.32292 -1.32292 h -1.322916 -1.322917 v 1.32292 1.32292 h -1.322917 -1.322916 z m 26.458332,-2.64583 v -1.32292 h -1.322917 -1.322916 v 1.32292 1.32291 h 1.322916 1.322917 z m 23.812506,0 v -1.32292 h -3.96875 -3.96875 v -1.32292 -1.32291 h 1.32291 1.32292 v -1.32292 -1.32292 h 2.64583 2.64584 v 1.32292 1.32292 h 1.32291 1.32292 v -1.32292 -1.32292 h -1.32292 -1.32291 v -1.32291 -1.32292 h -1.32292 -1.32292 v -1.32292 -1.32291 h 1.32292 1.32292 v -1.32292 -1.32292 h 1.32291 1.32292 v 1.32292 1.32292 h 1.32291 1.32292 v -1.32292 -1.32292 h -1.32292 -1.32291 v -1.322911 -1.32292 h 1.32291 1.32292 v -1.32292 -1.32291 h 1.32292 1.32291 v 1.32291 1.32292 h 1.32292 1.32292 v 1.32292 1.322911 h -1.32292 -1.32292 v 1.32292 1.32292 h 1.32292 1.32292 v -1.32292 -1.32292 h 1.32291 1.32292 v -1.322911 -1.32292 h -1.32292 -1.32291 v -2.64583 -2.64584 h 1.32291 1.32292 v -1.32291 -1.32292 h 1.32292 1.32291 v -1.32292 -1.32291 h 5.291669 5.29167 v -1.32292 -1.32292 h -1.32292 -1.32292 v -1.32291 -1.32292 h -1.32291 -1.32292 v -1.32291 -1.32292 h -1.32292 -1.32291 v 2.64583 2.64583 h -1.322919 -1.32292 v 1.32292 1.32292 h -1.32291 -1.32292 v 1.32291 1.32292 h -2.64583 -2.64584 v 1.32292 1.32291 h -2.64583 -2.64583 v 2.64584 2.64583 h -5.29167 -5.29166 v 1.32292 1.322911 h -1.32292 -1.32292 v -1.322911 -1.32292 h -1.32292 -1.32291 v -1.32292 -1.32291 h -1.32292 -1.322916 v -1.32292 -1.32292 h 1.322916 1.32292 v -2.64583 -2.64583 h 1.32291 1.32292 v 1.32291 1.32292 h 5.29167 5.29167 v -1.32292 -1.32291 h 1.32291 1.32292 v 1.32291 1.32292 h 1.32291 1.32292 v -1.32292 -1.32291 h -1.32292 -1.32291 v -1.32292 -1.32292 h 2.64583 2.64583 v 1.32292 1.32292 h 1.32292 1.32292 v -1.32292 -1.32292 h -1.32292 -1.32292 v -3.96874 -3.96875 h 2.64584 2.64583 v 1.32291 1.32292 h -1.32292 -1.32291 v 1.32292 1.32291 h 1.32291 1.32292 v -1.32291 -1.32292 h 1.32292 1.32291 v -1.32292 -1.32291 h 2.645839 2.64583 v -2.64584 -2.64583 h 1.32292 1.32291 v -1.32292 -1.32291 h -1.32291 -1.32292 v 1.32291 1.32292 h -1.32292 -1.32291 v -1.32292 -1.32291 h -1.322919 -1.32292 v 1.32291 1.32292 h -1.32291 -1.32292 v -1.32292 -1.32291 h -1.32292 -1.32291 v 2.64583 2.64583 h -1.32292 -1.32292 v -1.32291 -1.32292 h -1.32291 -1.32292 v -1.32292 -1.32291 h -1.32292 -1.32291 v -1.32292 -1.32292 h -2.64583 -2.64584 v -1.32291 -1.32292 h 1.32292 1.32292 v -1.32292 -1.32291 h -1.32292 -1.32292 v 1.32291 1.32292 h -1.32291 -1.32292 v -1.32292 -1.32291 h -1.32292 -1.32291 v -1.32292 -1.32291 h 1.32291 1.32292 v -1.32292 -1.32292 h -1.32292 -1.32291 v -2.64583 -2.64583 h 1.32291 1.32292 v 1.32291 1.32292 h 1.32292 1.32291 v -1.32292 -1.32291 h -1.32291 -1.32292 v -1.32292 -1.32292 h -1.32292 -1.32291 v -1.32291 -1.32292 h 1.32291 1.32292 v -1.32292 -1.32291 h -1.32292 -1.32291 v 1.32291 1.32292 h -2.64584 -2.64583 v -1.32292 -1.32291 h -2.645836 -2.645833 v 1.32291 1.32292 h -1.322917 -1.322917 v -1.32292 -1.32291 h -1.322916 -1.322917 v -1.32292 -1.32292 h -1.322917 -1.322916 v 1.32292 1.32292 h 1.322916 1.322917 v 2.64583 2.64583 h -2.645833 -2.645833 v -2.64583 -2.64583 h -1.322917 -1.322917 v -3.96875 -3.96875 h -2.645833 -2.645833 v -1.32292 -1.32292 h -2.645833 -2.645834 v 1.32292 1.32292 h 2.645834 2.645833 v 1.32291 1.32292 h -1.322917 -1.322916 v 1.32292 1.32291 h -1.322917 -1.322917 v 2.64584 2.64583 h -1.322916 -1.322917 v -2.64583 -2.64584 h -2.645833 -2.645833 v -1.32291 -1.32292 H 30.604166 29.28125 v -1.32292 -1.32291 h -1.322917 -1.322917 v 1.32291 1.32292 h 1.322917 1.322917 v 1.32292 1.32291 H 25.3125 21.34375 v 1.32292 1.32292 h -1.322917 -1.322916 v 1.32291 1.32292 H 17.375 16.052083 v 1.32292 1.32291 H 17.375 18.697917 v 3.96875 3.96875 h 1.322916 1.322917 v 1.32292 1.32292 h 1.322916 1.322917 v 2.64583 2.64583 h 2.645833 2.645834 v -1.32292 -1.32291 h 1.322916 1.322917 v -1.32292 -1.32291 h 1.322916 1.322917 v 2.64583 2.64583 h -1.322917 -1.322916 v 1.32292 1.32291 h -3.96875 -3.96875 v 1.32292 1.32292 H 22.666666 21.34375 v -1.32292 -1.32292 h -1.322917 -1.322916 v 1.32292 1.32292 H 16.052083 13.40625 v 1.32291 1.32292 h 1.322917 1.322916 v 1.32292 1.32291 H 17.375 18.697917 v 1.32292 1.32292 h 1.322916 1.322917 v -2.64584 -2.64583 h 1.322916 1.322917 v -1.32292 -1.32291 h 2.645833 2.645834 v 1.32291 1.32292 h -1.322917 -1.322917 v 1.32292 1.32291 h 1.322917 1.322917 v 1.32292 1.32292 h -1.322917 -1.322917 v 1.32291 1.32292 h 3.96875 3.96875 v 1.32292 1.32291 h -1.322917 -1.322916 v 1.32292 1.32291 h 1.322916 1.322917 v 1.32292 1.32292 h 1.322917 1.322916 v 1.32291 1.32292 h -1.322916 -1.322917 v 1.32292 1.32291 h -1.322917 -1.322916 v -1.32291 -1.32292 H 30.604166 29.28125 v 1.32292 1.32291 h -1.322917 -1.322917 v 1.32292 1.32292 h 1.322917 1.322917 v -1.32292 -1.32292 h 1.322916 1.322917 v 2.64584 2.64583 h 1.322916 1.322917 v 1.32292 1.322911 h 1.322917 1.322916 v -3.968751 -3.96875 h 1.322917 1.322916 v 1.32292 1.32292 h 1.322917 1.322917 v 2.64583 2.645831 h 1.322916 1.322917 v 1.32292 1.32292 h 1.322917 1.322916 v -1.32292 -1.32292 h 1.322917 1.322916 v 2.64584 2.64583 h -1.322916 -1.322917 v 1.32292 1.32291 h 1.322917 1.322916 v -1.32291 -1.32292 h 2.645834 2.645833 v 1.32292 1.32291 h 1.322916 1.322917 v 1.32292 1.32292 h 1.322917 1.322916 v 1.32291 1.32292 h 1.322917 1.322917 v -1.32292 -1.32291 h -1.322917 -1.322917 v -1.32292 -1.32292 h 1.322917 1.322917 v -1.32291 -1.32292 h 3.968749 3.96875 v 1.32292 1.32291 h -1.32292 -1.32291 v 1.32292 1.32292 h 1.32291 1.32292 v 1.32291 1.32292 h 1.32292 1.32292 v 1.32292 1.32291 h 3.96875 3.96875 z m -10.58334,-5.29167 v -1.32292 h 1.32292 1.32292 v -2.64583 -2.64583 h 1.32291 1.32292 v 2.64583 2.64583 h -1.32292 -1.32291 v 1.32292 1.32292 h -1.32292 -1.32292 z m -13.229166,-2.64583 v -1.32292 h 1.322917 1.322916 v -1.32292 -1.32291 h -1.322916 -1.322917 v -2.64584 -2.645831 h -2.645833 -2.645833 v 1.32292 1.322911 h 1.322916 1.322917 v 1.32292 1.32292 h -1.322917 -1.322916 v -1.32292 -1.32292 h -1.322917 -1.322917 v -1.322911 -1.32292 h -2.645833 -2.645833 v -2.64583 -2.64584 h -2.645833 -2.645834 v -2.64583 -2.64583 h -1.322916 -1.322917 v -1.32292 -1.32292 h -1.322916 -1.322917 v -1.32291 -1.32292 h 1.322917 1.322916 v -1.32291 -1.32292 h 1.322917 1.322916 v 1.32292 1.32291 h 1.322917 1.322917 v -1.32291 -1.32292 h 3.96875 3.968749 v -1.32292 -1.32291 h -2.645833 -2.645833 v -1.32292 -1.32292 h -1.322917 -1.322916 v 1.32292 1.32292 h -1.322917 -1.322917 v -1.32292 -1.32292 h 1.322917 1.322917 v -3.96875 -3.96875 h 1.322916 1.322917 v -1.32291 -1.32292 h -1.322917 -1.322916 v -3.96875 -3.96875 h -2.645834 -2.645833 v 1.32292 1.32292 h -1.322916 -1.322917 v -1.32292 -1.32292 h -1.322917 -1.322916 v 1.32292 1.32292 H 30.604166 29.28125 v 1.32291 1.32292 h -1.322917 -1.322917 v -1.32292 -1.32291 h 1.322917 1.322917 v -1.32292 -1.32292 h -1.322917 -1.322917 v -1.32291 -1.32292 h 1.322917 1.322917 v -1.32292 -1.32291 h -1.322917 -1.322917 v -1.32292 -1.32292 H 25.3125 23.989583 v 2.64584 2.64583 H 22.666666 21.34375 v -3.96875 -3.96875 h 1.322916 1.322917 v -1.32292 -1.32291 h 5.291667 5.291666 v 1.32291 1.32292 h 1.322917 1.322916 v 1.32292 1.32291 h 1.322917 1.322916 v -1.32291 -1.32292 h 2.645834 2.645833 v -1.32292 -1.32291 h 2.645833 2.645833 v 1.32291 1.32292 h -1.322916 -1.322917 v 1.32292 1.32291 h -1.322916 -1.322917 v 1.32292 1.32292 h 1.322917 1.322916 v 1.32291 1.32292 h 1.322917 1.322916 v -1.32292 -1.32291 h 1.322917 1.322917 v 1.32291 1.32292 h 2.645833 2.645833 v 1.32292 1.32291 h 1.322917 1.322916 v -3.96875 -3.96875 h 1.322917 1.322917 v -1.32291 -1.32292 h 2.645833 2.645836 v 1.32292 1.32291 h 1.32291 1.32292 v 3.96875 3.96875 h 1.32292 1.32292 v 1.32292 1.32292 h -2.64584 -2.64583 v 1.32291 1.32292 h 1.32291 1.32292 v 1.32291 1.32292 h 1.32292 1.32292 v 2.64583 2.64584 h 1.32291 1.32292 v -1.32292 -1.32292 h 1.32292 1.32291 v 2.64584 2.64583 h 1.32292 1.32292 v -1.32292 -1.32291 h 1.32291 1.32292 v 1.32291 1.32292 h -1.32292 -1.32291 v 1.32292 1.32291 h 3.96874 3.96875 v 1.32292 1.32292 h -1.32291 -1.32292 v 2.64583 2.64583 h -1.32292 -1.32291 v 1.32292 1.32291 h -1.32292 -1.32291 v -1.32291 -1.32292 h -1.32292 -1.32292 v -1.32291 -1.32292 h -1.32291 -1.32292 v -1.32292 -1.32291 h -1.32292 -1.32291 v 1.32291 1.32292 h -1.32292 -1.32292 v 1.32292 1.32291 h 1.32292 1.32292 v 1.32292 1.32291 h 2.64583 2.64583 v 1.32292 1.32292 h -2.64583 -2.64583 v -1.32292 -1.32292 h -1.32292 -1.32292 v -1.32291 -1.32292 h -1.32292 -1.32291 v 1.32292 1.32291 h -1.32292 -1.322916 v 1.32292 1.32292 h -1.322917 -1.322916 v -1.32292 -1.32292 h -1.322917 -1.322917 v -1.32291 -1.32292 h -2.645833 -2.645833 v 1.32292 1.32291 h 1.322916 1.322917 v 1.32292 1.32292 h 1.322917 1.322916 v 1.32291 1.32292 h -1.322916 -1.322917 v 1.32292 1.32291 h -1.322917 -1.322916 v 1.32292 1.32292 h 1.322916 1.322917 v 1.32291 1.32292 h 3.96875 3.96875 v 1.32292 1.322911 h -2.645833 -2.645834 v 1.32292 1.32292 h 1.322917 1.322917 v 1.32291 1.32292 h -1.322917 -1.322917 v 1.32292 1.32291 H 59.708332 58.385415 Z M 53.093749,94.104159 v -1.32292 h 1.322916 1.322917 v -1.32291 -1.32292 h -2.645833 -2.645834 v -1.32292 -1.32291 h -2.645833 -2.645833 v -2.64584 -2.64583 h -1.322917 -1.322916 v 1.32292 1.32291 h -1.322917 -1.322917 v 1.32292 1.32292 h 2.645834 2.645833 v 2.64583 2.64583 h 1.322917 1.322916 v 1.32292 1.32292 h 2.645833 2.645834 z m 13.229166,-11.90625 v -2.64583 h 1.322916 1.32292 v -2.64583 -2.64584 h 2.64583 2.64584 v -2.64583 -2.64583 h -2.64584 -2.64583 v -1.32292 -1.32292 h 1.32291 1.32292 v -1.32291 -1.32292 h -1.32292 -1.32291 v 1.32292 1.32291 h -1.32292 -1.322916 v -1.32291 -1.32292 h -1.322917 -1.322916 v -2.64583 -2.64583 h -2.645834 -2.645833 v 1.32291 1.32292 h 1.322917 1.322916 v 1.32291 1.32292 h -2.645833 -2.645833 v 1.32292 1.32291 h 5.291666 5.291667 v 1.32292 1.32292 h -3.96875 -3.96875 v 1.32291 1.32292 h -2.645833 -2.645833 v -6.61458 -6.61458 h 1.322916 1.322917 v -1.32292 -1.32292 h -2.645833 -2.645834 v 3.96875 3.96875 h -1.322916 -1.322917 v -2.64583 -2.64583 h -1.322916 -1.322917 v 2.64583 2.64583 h 1.322917 1.322916 v 1.32292 1.32291 h 1.322917 1.322916 v 2.64584 2.64583 h 1.322917 1.322917 v 1.32292 1.32291 h -1.322917 -1.322917 v 1.32292 1.32292 h 1.322917 1.322917 v 1.32291 1.32292 h -1.322917 -1.322917 v 1.32292 1.32291 h 1.322917 1.322917 v -1.32291 -1.32292 h 2.645833 2.645833 v -1.32292 -1.32291 h -1.322917 -1.322916 v -1.32292 -1.32292 h 2.645833 2.645833 v 1.32292 1.32292 h 1.322917 1.322917 v 1.32291 1.32292 h -1.322917 -1.322917 v 1.32292 1.32291 h 1.322917 1.322917 v 1.32292 1.32291 h 1.322916 1.322917 z m 0,-10.58333 v -2.64583 h 1.322916 1.32292 v 2.64583 2.64583 h -1.32292 -1.322916 z m 18.520836,6.61458 v -1.32291 h -1.32292 -1.32291 v -1.32292 -1.32292 h -1.32292 -1.32292 v -1.32291 -1.32292 h -1.32291 -1.32292 v 1.32292 1.32291 h 1.32292 1.32291 v 2.64584 2.64583 h 2.64584 2.64583 z m -37.041669,-5.29166 v -1.32292 h -1.322916 -1.322917 v 1.32292 1.32291 h 1.322917 1.322916 z M 31.927083,54.416669 v -1.32292 H 30.604166 29.28125 v 1.32292 1.32291 h 1.322916 1.322917 z m 5.291666,0 v -1.32292 h 1.322917 1.322916 v -1.32292 -1.32291 h 1.322917 1.322917 v 1.32291 1.32292 h 1.322916 1.322917 v -1.32292 -1.32291 h -1.322917 -1.322916 v -1.32292 -1.32292 h -1.322917 -1.322917 v 1.32292 1.32292 h -2.645833 -2.645833 v 2.64583 2.64583 h 1.322917 1.322916 z m 29.104166,0 v -1.32292 h -1.322917 -1.322916 v 1.32292 1.32291 h 1.322916 1.322917 z m 0,-5.29167 v -1.32292 h -1.322917 -1.322916 v 1.32292 1.32292 h 1.322916 1.322917 z M 29.28125,46.479169 v -1.32292 h -1.322917 -1.322917 v 1.32292 1.32291 h 1.322917 1.322917 z m 5.291666,0 v -1.32292 h -1.322917 -1.322916 v 1.32292 1.32291 h 1.322916 1.322917 z m 34.395835,55.562491 v -1.32292 h 1.32291 1.32292 v 1.32292 1.32292 h -1.32292 -1.32291 z M 63.677082,91.458329 v -1.32292 h 1.322916 1.322917 v 1.32292 1.32291 h -1.322917 -1.322916 z m -29.104166,-15.875 v -1.32292 H 31.927083 29.28125 v -1.32291 -1.32292 h 3.968749 3.96875 v -1.32292 -1.32291 h -1.322916 -1.322917 v -1.32292 -1.32292 h 1.322917 1.322916 v -2.64583 -2.64583 h 1.322917 1.322916 v 5.29166 5.29167 h -1.322916 -1.322917 v 2.64583 2.64584 h -1.322916 -1.322917 z m -15.874999,-5.29167 v -1.32291 h 1.322916 1.322917 v 1.32291 1.32292 h -1.322917 -1.322916 z m 87.312493,44.979171 v -1.32292 h -1.32291 -1.32292 v 1.32292 1.32291 h 1.32292 1.32291 z m 7.9375,0 v -1.32292 h -1.32291 -1.32292 v -1.32292 -1.32291 h -1.32292 -1.32291 v -1.32292 -1.32292 h 1.32291 1.32292 v -1.32291 -1.32292 h -1.32292 -1.32291 v 1.32292 1.32291 h -1.32292 -1.32292 v 1.32292 1.32292 h 1.32292 1.32292 v 1.32291 1.32292 h 1.32291 1.32292 v 1.32292 1.32291 h 1.32292 1.32291 z m -76.729161,-2.64584 v -1.32291 h -1.322916 -1.322917 v 1.32291 1.32292 h 1.322917 1.322916 z m 60.854162,-1.32291 v -2.64584 h -1.32291 -1.32292 v 1.32292 1.32292 h -1.32292 -1.32291 v 1.32291 1.32292 h 2.64583 2.64583 z m 5.291669,-1.32292 v -1.32292 h -1.32292 -1.32291 v 1.32292 1.32292 h 1.32291 1.32292 z m 2.64583,-7.9375 v -3.968751 h -3.96875 -3.968749 v 3.968751 3.96875 h 3.968749 3.96875 z m -5.29166,0 v -1.32292 h 1.32291 1.32292 v 1.32292 1.32292 h -1.32292 -1.32291 z m 10.58333,-5.291671 v -1.32291 h -1.32292 -1.32291 v -1.32292 -1.32292 h 1.32291 1.32292 v -1.32291 -1.32292 h -1.32292 -1.32291 v 1.32292 1.32291 h -2.64584 -2.64583 v 1.32292 1.32292 h 2.64583 2.64584 v 1.32291 1.32292 h 1.32291 1.32292 z m -29.104159,-2.64583 v -1.32292 h -3.96875 -3.96875 v 1.32292 1.32292 h 3.96875 3.96875 z m 34.395829,-7.9375 v -1.32292 h -1.32292 -1.32292 v 1.32292 1.32292 h 1.32292 1.32292 z m -87.3125,-2.64583 v -1.32292 h -2.645834 -2.645833 v 1.32292 1.32291 h 2.645833 2.645834 z m 79.375,-18.52083 v -1.32292 h -1.32292 -1.32292 v -2.64583 -2.64583 h -2.64583 -2.64583 v -1.32292 -1.32292 h 1.32291 1.32292 v -1.32291 -1.32292 h -1.32292 -1.32291 v -1.32292 -1.32291 h 1.32291 1.32292 v -1.32292 -1.32292 h -1.32292 -1.32291 v 1.32292 1.32292 h -1.322919 -1.32292 v 1.32291 1.32292 h -1.32291 -1.32292 v 1.32292 1.32291 h 1.32292 1.32291 v 1.32292 1.32292 h -2.64583 -2.64583 v 1.32291 1.32292 h 2.64583 2.64583 v 1.32291 1.32292 h 1.32292 1.322919 v 1.32292 1.32291 h 3.96875 3.96875 z m -7.9375,-2.64584 v -1.32291 h -1.322919 -1.32292 v -1.32292 -1.32291 h 1.32292 1.322919 v 1.32291 1.32292 h 1.32291 1.32292 v 1.32291 1.32292 h -1.32292 -1.32291 z m -2.645839,-7.93749 v -1.32292 h 1.32292 1.322919 v 1.32292 1.32291 h -1.322919 -1.32292 z m 18.520839,10.58333 v -1.32292 h -1.32292 -1.32292 v 1.32292 1.32291 h 1.32292 1.32292 z m -95.25,-2.64584 v -1.32291 h -1.322917 -1.322916 v 1.32291 1.32292 h 1.322916 1.322917 z m 95.25,-7.93749 v -1.32292 h -1.32292 -1.32292 v 1.32292 1.32291 h 1.32292 1.32292 z m -34.395829,-7.9375 v -1.32292 h -1.32292 -1.32292 v 1.32292 1.32291 h 1.32292 1.32292 z m 29.104159,0 v -1.32292 h -1.32292 -1.32291 v -1.32292 -1.32291 h -1.32292 -1.32292 v 1.32291 1.32292 h 1.32292 1.32292 v 1.32292 1.32291 h 1.32291 1.32292 z m -44.979165,-7.9375 v -1.32292 h 2.645836 2.64583 v -1.32292 -1.32291 h -1.32292 -1.32291 v -1.32292 -1.32292 h -2.645836 -2.645833 v -3.96875 -3.96875 h -1.322917 -1.322917 v -1.32291 -1.32292 h -1.322916 -1.322917 v 1.32292 1.32291 h -1.322917 -1.322916 v 3.96875 3.96875 h -1.322917 -1.322916 v 2.64584 2.64583 h 2.645833 2.645833 v -1.32292 -1.32291 h 3.96875 3.96875 v 1.32291 1.32292 h -2.645833 -2.645834 v 1.32292 1.32291 h 2.645834 2.645833 z m -10.583333,-5.29167 v -1.32292 h 1.322916 1.322917 v 1.32292 1.32292 h -1.322917 -1.322916 z m 2.645833,-6.61458 v -2.64584 h 1.322917 1.322916 v 2.64584 2.64583 h -1.322916 -1.322917 z m -34.395832,9.26041 v -1.32291 H 22.666666 21.34375 v 1.32291 1.32292 h 1.322916 1.322917 z m 63.499998,-2.64583 v -1.32292 h -1.32292 -1.32291 v -2.64583 -2.64583 h 1.32291 1.32292 v -1.32292 -1.32292 h -1.32292 -1.32291 v 1.32292 1.32292 h -1.32292 -1.32291 v 2.64583 2.64583 h 1.32291 1.32292 v 1.32292 1.32292 h 1.32291 1.32292 z m -34.395832,-5.29167 v -1.32291 h -1.322917 -1.322917 v 1.32291 1.32292 h 1.322917 1.322917 z m 15.875002,0 v -1.32291 h -1.32292 -1.322916 v 1.32291 1.32292 h 1.322916 1.32292 z m -15.875002,-5.29166 v -1.32292 h -1.322917 -1.322917 v 1.32292 1.32291 h 1.322917 1.322917 z m 18.520832,0 v -1.32292 h -1.32292 -1.32291 v 1.32292 1.32291 h 1.32291 1.32292 z m 44.979169,83.343741 v -2.64583 h 1.32291 1.32292 v 2.64583 2.64583 h -1.32292 -1.32291 z M 10.760417,92.781239 v -5.29166 h 1.322917 1.322916 v 5.29166 5.29167 h -1.322916 -1.322917 z m 0,-9.26041 v -1.32292 h 1.322917 1.322916 v 1.32292 1.32291 h -1.322916 -1.322917 z m 82.020834,-41.01041 v -2.64584 h 1.32291 1.32292 v -1.32291 -1.32292 h -1.32292 -1.32291 v -1.32292 -1.32291 h 3.96875 3.968749 v -1.32292 -1.32292 h 6.61458 6.61458 v 1.32292 1.32292 h 2.64584 2.64583 v 1.32291 1.32292 h -3.96875 -3.96875 v -1.32292 -1.32291 h -1.32292 -1.32291 v 1.32291 1.32292 h -2.64584 -2.64583 v 1.32292 1.32291 h -2.64583 -2.645839 v 1.32292 1.32292 h -1.32291 -1.32292 v 1.32291 1.32292 h -1.32292 -1.32291 z M 31.927083,23.989579 v -7.9375 h 1.322916 1.322917 v -2.64583 -2.64583 h 2.645833 2.645833 v 1.32291 1.32292 h 1.322917 1.322917 v 2.64583 2.64584 h -2.645834 -2.645833 v 1.32291 1.32292 h 3.96875 3.96875 v 1.32292 1.32291 h -5.291667 -5.291666 v 3.96875 3.96875 h -1.322917 -1.322916 z m 7.937499,-9.26041 v -1.32292 h -1.322916 -1.322917 v 1.32292 1.32291 h 1.322917 1.322916 z m -29.104165,5.29166 v -9.26041 h 9.260416 9.260417 v 9.26041 9.26042 h -9.260417 -9.260416 z m 15.874999,0 v -6.61458 H 20.020833 13.40625 v 6.61458 6.61459 h 6.614583 6.614583 z m -10.583333,0 v -3.96875 h 3.96875 3.96875 v 3.96875 3.96875 h -3.96875 -3.96875 z m 84.666667,0 v -9.26041 h 9.26041 9.26042 v 9.26041 9.26042 h -9.26042 -9.26041 z m 15.875,0 v -6.61458 h -6.61459 -6.61458 v 6.61458 6.61459 h 6.61458 6.61459 z m -10.58334,0 v -3.96875 h 3.96875 3.96875 v 3.96875 3.96875 h -3.96875 -3.96875 z m -26.458329,-2.64583 v -1.32292 h 1.32292 1.32292 v -1.32291 -1.32292 h -1.32292 -1.32292 v -1.32292 -1.32291 h 9.26042 9.26041 v 1.32291 1.32292 h -3.96875 -3.96875 v 1.32292 1.32291 h 1.32292 1.32292 v 1.32292 1.32292 h -6.61459 -6.61458 z m 7.9375,-2.64583 v -1.32292 h -1.32292 -1.32291 v 1.32292 1.32291 h 1.32291 1.32292 z m 7.9375,2.64583 v -1.32292 h 1.32292 1.32291 v 1.32292 1.32292 h -1.32291 -1.32292 z m -37.041666,-3.96875 v -2.64583 h 3.96875 3.96875 v 2.64583 2.64583 h -1.322917 -1.322916 v -1.32291 -1.32292 h -1.322917 -1.322917 v 1.32292 1.32291 h -1.322916 -1.322917 z m 10.583336,1.32292 v -1.32292 h 1.32291 1.32292 v -1.32292 -1.32291 h 1.32292 1.32292 v 1.32291 1.32292 h 1.32291 1.32292 v 1.32292 1.32291 h -1.32292 -1.32291 v -1.32291 -1.32292 h -1.32292 -1.32292 v 1.32292 1.32291 h -1.32292 -1.32291 z"
       id="path1" /></g></svg>
